<svg xmlns="http://www.w3.org/2000/svg" width="490.917" height="36.885" viewBox="0 0 490.917 36.885"><g transform="translate(3256.613 686.951)"><path d="M-3206.921-660.945a11.15,11.15,0,0,1-11.142,11.142h-38.55v-35.348h38.55a11.15,11.15,0,0,1,11.142,11.142Zm-3.073-13.064a8.035,8.035,0,0,0-8.069-8.068h-35.476v29.2h35.476a8.035,8.035,0,0,0,8.069-8.068Zm-3.074,18.058h-37.4V-679h37.4Zm-3.073-3.073V-675.93h-31.25v16.906Z" transform="translate(0 -1.032)" fill="#d6fd34"/><path d="M-3127.54-649.8h-3.073v-35.348h3.073Zm6.148,0h-3.074v-35.348h3.074Z" transform="translate(-72.207 -1.032)" fill="#d6fd34"/><path d="M-3085.519-681.7a7.18,7.18,0,0,0-4.995-2.177c-3.394-.064-5.828,2.369-5.828,6.147v26.9h-3.074v-26.9c0-5.827,4.163-9.221,8.645-9.221a9.853,9.853,0,0,1,7.108,2.945l25.1,25.039V-677.73c0-5.827,4.162-9.221,8.645-9.221a10.619,10.619,0,0,1,7.108,2.945l39.318,33.171h-4.675l-37.013-31.378a7.694,7.694,0,0,0-4.61-1.665c-3.65,0-5.7,2.625-5.7,6.147v18.443a3.09,3.09,0,0,1-2.882,3.266,4.172,4.172,0,0,1-3.137-1.6Zm-4.674,3.65v27.216h-3.074v-26.9a3.141,3.141,0,0,1,2.946-3.266c.832,0,1.792.32,3.137,1.665l24.014,24.078a7.385,7.385,0,0,0,5,2.113c3.394,0,5.763-2.369,5.763-6.147V-677.73c0-1.857,1.025-3.074,2.818-3.074a3.665,3.665,0,0,1,2.433.961l34.388,29.009h-4.867l-31.7-26.96v18.507c0,5.827-4.1,9.221-8.581,9.221a9.853,9.853,0,0,1-7.108-2.945Z" transform="translate(-90.086 0)" fill="#d6fd34"/><path d="M-2832.522-649.8h-38.55a11.151,11.151,0,0,1-11.142-11.142v-13.064a11.151,11.151,0,0,1,11.142-11.142h38.55v3.074h-38.55a8.035,8.035,0,0,0-8.068,8.068v13.064a8.035,8.035,0,0,0,8.068,8.068h38.55Zm0-19.211h-43.545V-679h43.545v3.074h-40.471v3.842h40.471Zm0,13.064h-43.545v-9.99h43.545v3.074h-40.471v3.842h40.471Z" transform="translate(-214.558 -1.032)" fill="#d6fd34"/><path d="M-2712.286-686.183v26.9a3.034,3.034,0,0,1-3.074,3.073,3.246,3.246,0,0,1-2.113-.832l-25.23-25.1a6.164,6.164,0,0,0-4.291-1.729,6.149,6.149,0,0,0-6.148,6.147v26.9h-3.074v-26.9a9.223,9.223,0,0,1,9.221-9.221,9.362,9.362,0,0,1,6.531,2.754l25.1,24.91v-26.9Zm6.147,26.9a9.183,9.183,0,0,1-9.221,9.221,9.191,9.191,0,0,1-6.532-2.689l-25.1-24.974v26.9h-3.074v-26.9a3.075,3.075,0,0,1,3.074-3.074,3,3,0,0,1,2.113.833l25.23,25.1a6.28,6.28,0,0,0,4.291,1.729,6.149,6.149,0,0,0,6.147-6.147v-26.9h3.074Z" transform="translate(-286.765 0)" fill="#d6fd34"/><path d="M-2593-649.8h-38.55v-9.221h40.47v-3.842h-30.993a11.109,11.109,0,0,1-11.142-11.142,11.109,11.109,0,0,1,11.142-11.142h38.55v9.221h-40.471v3.842H-2593a11.151,11.151,0,0,1,11.142,11.143A11.151,11.151,0,0,1-2593-649.8Z" transform="translate(-357.252 -1.032)" fill="#d6fd34"/><path d="M-2498-649.8h-9.221v-35.348H-2498Z" transform="translate(-429.459 -1.032)" fill="#d6fd34"/><path d="M-2426.326-660.945a11.15,11.15,0,0,1-11.142,11.142h-27.407a11.151,11.151,0,0,1-11.142-11.142v-13.064a11.151,11.151,0,0,1,11.142-11.142h27.407a11.15,11.15,0,0,1,11.142,11.142Zm-9.221,1.921V-675.93h-31.25v16.906Z" transform="translate(-447.338 -1.032)" fill="#d6fd34"/><path d="M-2299.942-686.183v26.9a9.183,9.183,0,0,1-9.221,9.221,9.191,9.191,0,0,1-6.532-2.689l-25.1-24.974v26.9h-9.222v-26.9a9.224,9.224,0,0,1,9.222-9.221,9.363,9.363,0,0,1,6.531,2.754l25.1,24.91v-26.9Z" transform="translate(-519.545 0)" fill="#d6fd34"/><path d="M-2186.8-649.8h-38.55v-9.221h40.471v-3.842h-30.993a11.109,11.109,0,0,1-11.143-11.142,11.11,11.11,0,0,1,11.143-11.142h38.55v9.221H-2217.8v3.842h30.993a11.15,11.15,0,0,1,11.142,11.143A11.15,11.15,0,0,1-2186.8-649.8Z" transform="translate(-590.032 -1.032)" fill="#d6fd34"/></g></svg>