<?xml version="1.0" ?><!DOCTYPE svg  PUBLIC '-//W3C//DTD SVG 1.1//EN'  'http://www.w3.org/Graphics/SVG/1.1/DTD/svg11.dtd'><svg height="256px" style="shape-rendering:geometricPrecision; text-rendering:geometricPrecision; image-rendering:optimizeQuality; fill-rule:evenodd; clip-rule:evenodd" version="1.1" viewBox="0 0 256001 256000" width="256px" xml:space="preserve" xmlns="http://www.w3.org/2000/svg" xmlns:xlink="http://www.w3.org/1999/xlink"><defs><style type="text/css">
   <![CDATA[
    .fil2 {fill:none}
    .fil0 {fill:#131418}
    .fil1 {fill:#FFFFFE}
   ]]>
  </style></defs><g id="Layer_x0020_1"><g id="_394088976"><rect class="fil0" height="256001" rx="20087" ry="20087" width="256001" x="-1" y="-1"/><g><polygon class="fil1" points="155852,76794 210831,76794 210831,84340 155852,84340 "/><path class="fil1" d="M117079 183545l0 0zm4919 -65733l0 0zm127 -39646c-3380,-4601 -7920,-8065 -13620,-10406 -5576,-2289 -12257,-3491 -20040,-3620l-34 -8 -59608 0 -2157 0 0 2155 0 123426 0 2155 2157 0 55582 0c3140,0 6220,-145 9239,-434 2987,-286 5859,-716 8614,-1285 2832,-587 5486,-1430 7957,-2528 2477,-1102 4767,-2460 6863,-4077 1856,-1395 3546,-2941 5073,-4637 1534,-1704 2921,-3574 4159,-5606l2 2c1948,-3071 3404,-6357 4376,-9856 963,-3464 1440,-7129 1440,-10992l8 0c0,-3716 -426,-7174 -1278,-10377 -861,-3237 -2153,-6191 -3876,-8863l-5 2c-1735,-2712 -3890,-5045 -6458,-7006 -1466,-1119 -3063,-2117 -4788,-2997 687,-442 1338,-892 1950,-1350 1695,-1265 3133,-2616 4315,-4053 2089,-2515 3647,-5411 4678,-8696 1017,-3241 1523,-6849 1523,-10834 0,-3861 -498,-7467 -1501,-10814 -1007,-3364 -2526,-6460 -4563,-9284l-8 -17zm-64839 7391l22976 0c2986,0 5752,174 8293,511 2590,345 4908,863 6949,1544l135 51c2662,1102 4666,2814 6014,5129 1303,2239 1954,4988 1954,8243 0,2907 -481,5412 -1448,7513 -1011,2197 -2541,3920 -4594,5169l3 5c-1867,1143 -3996,1996 -6391,2559 -2340,550 -4930,826 -7774,826l-26117 0 -2156 0 0 -2156 0 -27239 0 -2155 2156 0zm39724 49956c3026,1377 5309,3366 6848,5958 1511,2546 2267,5622 2267,9220 0,4151 -760,7668 -2279,10556 -1567,2981 -3907,5243 -7020,6792l-17 0c-1692,830 -3673,1436 -5944,1826 -2212,381 -4708,567 -7492,567l-26087 0 -2156 0 0 -2156 0 -32900 0 -2156 2156 0 26495 0 16 9c2775,28 5242,223 7393,587 2244,380 4187,945 5820,1697z"/><path class="fil1" d="M218957 177458l0 0zm2154 -66354c-2115,-3141 -4512,-5859 -7193,-8158 -2696,-2311 -5682,-4198 -8958,-5669 -3250,-1454 -6681,-2538 -10295,-3255 -3607,-715 -7398,-1070 -11374,-1070 -6733,0 -12861,1068 -18391,3209 -5555,2152 -10473,5379 -14759,9687 -4293,4323 -7506,9573 -9637,15752 -2104,6101 -3156,13104 -3156,21008 0,8440 1173,15733 3515,21886 2382,6257 5969,11322 10758,15199l8 9c4695,3775 9754,6612 15180,8510 5431,1898 11200,2850 17311,2850 7377,0 13968,-1130 19770,-3381 5863,-2275 10886,-5686 15066,-10223 2668,-2834 4757,-5664 6275,-8497 1558,-2908 2505,-5804 2849,-8690l287 -2408 -2426 0 -23590 0 -1282 0 -613 1146c-634,1184 -1313,2243 -2037,3166 -684,874 -1411,1626 -2179,2248l-17 9c-1431,1183 -3081,2065 -4948,2652 -1924,606 -4095,906 -6510,906 -2325,0 -4454,-248 -6383,-750 -1894,-494 -3630,-1238 -5205,-2238l-33 -17c-2550,-1558 -4500,-3707 -5853,-6443 -1142,-2309 -1872,-5047 -2195,-8212l62060 0 2118 0 29 -2131 15 -1251 8 -1224 8 0 0 -1342 -8 0c-8,-2981 -79,-5611 -209,-7891 -137,-2399 -336,-4460 -593,-6182l-8 -16c-568,-3619 -1463,-7021 -2691,-10212 -1239,-3216 -2807,-6207 -4714,-8977zm-46441 2300c2535,-934 5409,-1404 8621,-1404 2964,0 5708,441 8232,1324 2558,892 4852,2226 6884,3994l-4 4c2091,1806 3714,4017 4871,6635 1129,2555 1810,5495 2042,8824l161 2300 -2309 0 -39828 0 -2489 0 358 -2461c450,-3092 1227,-5871 2336,-8337 1127,-2505 2600,-4688 4420,-6547 1862,-1924 4096,-3371 6705,-4332z"/></g></g></g><rect class="fil2" height="256000" width="256000" x="1"/></svg>