<svg width="658" height="47" viewBox="0 0 658 47" fill="none" xmlns="http://www.w3.org/2000/svg">
<path d="M0.728027 46.0001H33.092V30.0661H19.204V1.11205H0.728027V46.0001Z" fill="#1E1E1E"/>
<path d="M41.6238 46.0001H74.7938V31.7401H60.0998V29.1981H71.2598V18.5341H60.0998V16.1161H73.9258V1.11205H41.6238V46.0001Z" fill="#1E1E1E"/>
<path d="M83.1251 46.0001H116.295V31.7401H101.601V29.1981H112.761V18.5341H101.601V16.1161H115.427V1.11205H83.1251V46.0001Z" fill="#1E1E1E"/>
<path d="M122.27 46.0001H140.622L142.358 40.1101H152.65L154.2 46.0001H174.164L157.052 1.11205H139.382L122.27 46.0001ZM145.582 28.8261L147.566 19.7121H147.69L149.674 28.8261H145.582Z" fill="#1E1E1E"/>
<path d="M180.962 46.0001H197.578V26.9041L197.702 26.8421L210.908 46.0001H227.71V1.11205H211.094V20.2081L210.97 20.2701L197.764 1.11205H180.962V46.0001Z" fill="#1E1E1E"/>
<path d="M236.873 46.0001H253.489V26.9041L253.613 26.8421L266.819 46.0001H283.621V1.11205H267.005V20.2081L266.881 20.2701L253.675 1.11205H236.873V46.0001Z" fill="#1E1E1E"/>
<path d="M314.1 23.5561C314.1 36.8861 325.074 46.6821 340.078 46.6821C345.41 46.6821 350.804 45.4421 353.718 43.8921V28.0821C350.618 29.8181 346.464 31.0581 342.31 31.0581C335.986 31.0581 332.576 28.0821 332.576 23.9281C332.576 19.7741 335.986 16.7361 342.31 16.7361C346.464 16.7361 350.37 18.0381 353.47 19.5881V3.03405C350.618 1.54605 345.348 0.430054 340.264 0.430054C325.012 0.430054 314.1 10.2881 314.1 23.5561Z" fill="#1E1E1E"/>
<path d="M362.527 46.0001H394.891V30.0661H381.003V1.11205H362.527V46.0001Z" fill="#1E1E1E"/>
<path d="M401.067 46.0001H419.419L421.155 40.1101H431.447L432.997 46.0001H452.961L435.849 1.11205H418.179L401.067 46.0001ZM424.379 28.8261L426.363 19.7121H426.487L428.471 28.8261H424.379Z" fill="#1E1E1E"/>
<path d="M463.464 46.0001H481.94V26.4701L498.308 1.11205H478.158L473.012 11.3421H472.888L467.804 1.11205H446.972L463.464 27.0281V46.0001Z" fill="#1E1E1E"/>
<path d="M515.161 46.0001H533.637V16.3641H546.161V1.11205H502.637V16.3641H515.161V46.0001Z" fill="#1E1E1E"/>
<path d="M552.485 23.5561C552.485 36.5761 563.459 46.6821 577.533 46.6821C591.607 46.6821 602.581 36.5761 602.581 23.5561C602.581 10.5361 591.607 0.430054 577.533 0.430054C563.459 0.430054 552.485 10.5361 552.485 23.5561ZM570.589 23.8661C570.589 20.0221 573.689 16.9221 577.533 16.9221C581.377 16.9221 584.477 20.0221 584.477 23.8661C584.477 27.7101 581.377 30.8101 577.533 30.8101C573.689 30.8101 570.589 27.7101 570.589 23.8661Z" fill="#1E1E1E"/>
<path d="M610.781 46.0001H627.397V26.9041L627.521 26.8421L640.727 46.0001H657.529V1.11205H640.913V20.2081L640.789 20.2701L627.583 1.11205H610.781V46.0001Z" fill="#1E1E1E"/>
</svg>
